<?xml version="1.0" encoding="UTF-8" standalone="no"?>
<!-- Generator: Adobe Illustrator 18.0.0, SVG Export Plug-In . SVG Version: 6.00 Build 0)  -->

<svg
   xmlns:dc="http://purl.org/dc/elements/1.1/"
   xmlns:cc="http://creativecommons.org/ns#"
   xmlns:rdf="http://www.w3.org/1999/02/22-rdf-syntax-ns#"
   xmlns:svg="http://www.w3.org/2000/svg"
   xmlns="http://www.w3.org/2000/svg"
   xmlns:xlink="http://www.w3.org/1999/xlink"
   xmlns:sodipodi="http://sodipodi.sourceforge.net/DTD/sodipodi-0.dtd"
   xmlns:inkscape="http://www.inkscape.org/namespaces/inkscape"
   version="1.1"
   id="Layer_1"
   x="0px"
   y="0px"
   viewBox="0 0 200 200"
   enable-background="new 0 0 200 200"
   xml:space="preserve"
   inkscape:version="0.91 r13725"
   sodipodi:docname="scala-icon.svg"><metadata
     id="metadata3450"><rdf:RDF><cc:Work
         rdf:about=""><dc:format>image/svg+xml</dc:format><dc:type
           rdf:resource="http://purl.org/dc/dcmitype/StillImage" /></cc:Work></rdf:RDF></metadata><defs
     id="defs3448" /><sodipodi:namedview
     pagecolor="#ffffff"
     bordercolor="#666666"
     borderopacity="1"
     objecttolerance="10"
     gridtolerance="10"
     guidetolerance="10"
     inkscape:pageopacity="0"
     inkscape:pageshadow="2"
     inkscape:window-width="2560"
     inkscape:window-height="1614"
     id="namedview3446"
     showgrid="false"
     inkscape:zoom="6.75"
     inkscape:cx="100"
     inkscape:cy="100"
     inkscape:window-x="0"
     inkscape:window-y="0"
     inkscape:window-maximized="1"
     inkscape:current-layer="Layer_1" /><g
     id="Scala_Icon"><path
       id="XMLID_1_"
       d="M151.3,168H48.7c-9.2,0-16.7-7.5-16.7-16.7V48.7C32,39.5,39.5,32,48.7,32h102.7   c9.2,0,16.7,7.5,16.7,16.7v102.7C168,160.5,160.5,168,151.3,168z"
       fill="#DC332D" /><g
       id="shadow"><defs
         id="defs3425"><path
           id="XMLID_2_"
           d="M151.3,168H48.7c-9.2,0-16.7-7.5-16.7-16.7V48.7C32,39.5,39.5,32,48.7,32h102.7c9.2,0,16.7,7.5,16.7,16.7     v102.7C168,160.5,160.5,168,151.3,168z" /></defs><clipPath
         id="XMLID_4_"><use
           xlink:href="#XMLID_2_"
           overflow="visible"
           id="use3429" /></clipPath><polygon
         clip-path="url(#XMLID_4_)"
         points="68.5,87.4 77.4,96.3 68.5,121 78.1,130.5 68.5,154.5 82.1,168 168,168     168,82 131.5,45.5 131.5,52.4   "
         id="polygon3431"
         opacity="0.3" /></g><g
       id="logo"><g
         id="g3434"
         opacity="0.6"><path
           d="M68.5,87.4c0,0,62.9,6.3,62.9,16.8V79c0,0,0-10.5-62.9-16.8V72V87.4z"
           id="path3436"
           fill="#FFFFFF" /><path
           d="M68.5,121c0,0,62.9,6.3,62.9,16.8v-25.2c0,0,0-10.5-62.9-16.8V121z"
           id="path3438"
           fill="#FFFFFF" /></g><path
         d="M131.5,45.5v25.2c0,0,0,10.5-62.9,16.8V62.2C68.5,62.2,131.5,56,131.5,45.5"
         id="path3440"
         fill="#FFFFFF" /><path
         d="M68.5,95.8c0,0,62.9-6.3,62.9-16.8v25.2c0,0,0,10.5-62.9,16.8V95.8z"
         id="path3442"
         fill="#FFFFFF" /><path
         d="M68.5,154.5v-25.2c0,0,62.9-6.3,62.9-16.8v25.2C131.5,137.8,131.5,148.2,68.5,154.5"
         id="path3444"
         fill="#FFFFFF" /></g></g></svg>